<svg width="31" height="32" viewBox="0 0 31 32"  xmlns="http://www.w3.org/2000/svg">
<path d="M4.64339 5.3934C-1.2256 11.2624 -1.2256 20.7376 4.64339 26.6066C10.5124 32.4756 19.9876 32.4756 25.8566 26.6066C31.7256 20.7376 31.7256 11.2624 25.8566 5.3934C19.9876 -0.475588 10.5124 -0.475587 4.64339 5.3934ZM20.5533 11.4038L15.9571 16L20.5533 20.5962C20.7654 20.8083 20.7654 21.0912 20.5533 21.3033C20.3412 21.5154 20.0583 21.5154 19.8462 21.3033L15.25 16.7071L10.6538 21.3033C10.4417 21.5154 10.1588 21.5154 9.94669 21.3033C9.73456 21.0912 9.73456 20.8083 9.94669 20.5962L14.5429 16L9.94669 11.4038C9.73456 11.1917 9.73456 10.9088 9.94669 10.6967C10.1588 10.4846 10.4417 10.4846 10.6538 10.6967L15.25 15.2929L19.8462 10.6967C20.0583 10.4846 20.3412 10.4846 20.5533 10.6967C20.7654 10.9088 20.7654 11.1917 20.5533 11.4038Z" fill="lightgreen"/>
</svg>
